<svg xmlns="http://www.w3.org/2000/svg"  viewBox="0 0 64 64" width="256px" height="256px"><rect width="13.976" height="2" x="15.132" y="40.372" fill="#a2bfe6" transform="rotate(-28.843 22.12 41.371)"/><circle cx="35.5" cy="34" r="6" fill="#bde3f7"/><rect width="2" height="17.393" x="23.222" y="12.803" fill="#a2bfe6" transform="rotate(-41.634 24.222 21.5)"/><rect width="9.507" height="2" x="40.742" y="24.792" fill="#a2bfe6" transform="rotate(-42.486 45.495 25.792)"/><circle cx="14" cy="10" r="9" fill="#d8e0e6"/><circle cx="14" cy="7.5" r="2.5" fill="#e6b374"/><path fill="#5993de" d="M18,12a2,2,0,0,0-2-2H12a2,2,0,0,0-2,2v3.736a6.961,6.961,0,0,0,8,0Z"/><circle cx="10" cy="48.051" r="9" fill="#d8e0e6"/><circle cx="10" cy="45.551" r="2.5" fill="#e6b374"/><path fill="#5993de" d="M14,50.051a2,2,0,0,0-2-2H8a2,2,0,0,0-2,2v3.736a6.961,6.961,0,0,0,8,0Z"/><circle cx="54" cy="18" r="9" fill="#d8e0e6"/><circle cx="54" cy="15.5" r="2.5" fill="#e6b374"/><path fill="#5993de" d="M58,20a2,2,0,0,0-2-2H52a2,2,0,0,0-2,2v3.736a6.961,6.961,0,0,0,8,0Z"/><path fill="#ffc780" d="M44.991,42.643a1.6,1.6,0,0,0-1.607,1.607V43.11a1.609,1.609,0,0,0-3.215,0V41.983a1.612,1.612,0,0,0-3.214,0V34.607a1.607,1.607,0,0,0-3.214,0V49.071l-1.7-1.917A2.084,2.084,0,0,0,29,47.625a2.057,2.057,0,0,0-.343,1.157,2.1,2.1,0,0,0,.5,1.361l3.762,5.614a6.119,6.119,0,0,0,1.886,1.3V63h8.572V56.775A6.414,6.414,0,0,0,46.6,51.214V44.25A1.605,1.605,0,0,0,44.991,42.643Z"/><path fill="#e6b374" d="M36.955,41.983V34.607A1.6,1.6,0,0,0,35.884,33.1V45.857h1.071Z"/><path fill="#e6b374" d="M40.169,43.11V41.983A1.491,1.491,0,0,0,39.1,40.591v5.266h1.071Z"/><path fill="#e6b374" d="M43.384,44.25V43.11a1.54,1.54,0,0,0-1.072-1.444v4.191h1.072Z"/><path fill="#e6b374" d="M45.452,42.718a1.594,1.594,0,0,1,.074.461v6.964A6.413,6.413,0,0,1,42.312,55.7V63h1.072V56.775A6.414,6.414,0,0,0,46.6,51.214V44.25A1.6,1.6,0,0,0,45.452,42.718Z"/></svg>