<svg xmlns="http://www.w3.org/2000/svg"  viewBox="-250 252 98 98" width="64px" height="64px"><path fill="#f4b844" d="M-155,315.4V326c0,3.6-9.6,6.6-21.4,6.6c-11.8,0-21.3-2.9-21.3-6.5v-1.2l-0.2-8.4c1.8,3.1,10.5,5.5,21,5.5 s21.6-3,21.6-6.6H-155z"/><path fill="#f4b844" d="M-155,305v10.4h-0.3c0,3.6-9.8,6.6-21.6,6.6c-11.8,0-19.2-2.4-21-5.5v-10.8c1.3,3.2,10.3,5.7,21.1,5.7 s21.3-2.9,21.6-6.4H-155z"/><path fill="#fedb41" d="M-198,305.7c-0.1-0.3-0.2-0.6-0.2-0.9c0-0.2,0.1-0.4,0.1-0.6c1.1-3.3,10.1-5.9,21.1-5.9h0.1 c11.8,0,21.7,2.9,21.7,6.5v0.2c-0.3,3.5-10,6.4-21.7,6.4S-196.7,308.9-198,305.7z"/><path fill="#f4b844" d="M-177,298v0.3c-11,0-20,2.6-21.1,5.9l-0.9-0.5c-2.1,0-4.2-0.1-6.2-0.3h-0.5c-0.9-4.5-3.4-8.6-6.9-11.6 l0.2-0.2c4.4,1,8.9,1.5,13.4,1.5c11.8,0,21.7-2.9,21.7-6.5h0.3V298z"/><path fill="#f4b844" d="M-177,276v10.6h-0.3c0,3.6-9.9,6.5-21.7,6.5c-4.5,0.1-9-0.4-13.4-1.4l-0.2,0.2c-2.2-1.9-4.7-3.3-7.4-4.2 v-0.2l-0.2-11.1c0.7,3.4,9.9,6.2,21.2,6.2s21.7-3,21.7-6.6H-177z"/><path fill="#fedb41" d="M-199,269.4c11.8,0,21.7,3,21.7,6.6s-9.9,6.6-21.7,6.6s-20.5-2.8-21.2-6.2c-0.1-0.1-0.1-0.3-0.1-0.4 C-220.3,272.4-210.8,269.4-199,269.4z"/><path fill="#f4b844" d="M-197.9,316.5l0.2,8.4h-1.1c-4.4,0.1-8.8-0.4-13.1-1.4l-0.2-0.3c2.7-2.5,4.8-5.7,5.9-9.3h0.5 c2.2,0.3,4.5,0.4,6.7,0.4h1.1V316.5z"/><path fill="#f4b844" d="M-198,305.7v8.6h-1c-2.2,0-4.5-0.1-6.7-0.4h-0.5c0.6-2,0.9-4.1,0.9-6.2c0-1.4-0.1-2.8-0.4-4.2h0.5 c2,0.2,4.1,0.3,6.2,0.3l0.9,0.5c0,0.2-0.1,0.4-0.1,0.6C-198.2,305.2-198.1,305.4-198,305.7z"/><path fill="#fedb41" d="M-205.7,303.5c0.3,1.4,0.4,2.8,0.4,4.2c0,2.1-0.3,4.2-0.9,6.2c-1.1,3.6-3.2,6.8-5.9,9.3 c-8.5,7.9-21.8,7.4-29.7-1.1c-7.9-8.5-7.4-21.8,1.1-29.7c3.9-3.6,9.1-5.6,14.5-5.6c2.1,0,4.2,0.3,6.2,0.9 c2.7,0.9,5.2,2.3,7.4,4.2C-209.1,294.9-206.6,299-205.7,303.5z M-215.5,307.7c0-5.9-4.8-10.7-10.7-10.7 c-5.9,0-10.7,4.8-10.7,10.7c0,5.9,4.8,10.7,10.7,10.7C-220.3,318.4-215.5,313.6-215.5,307.7L-215.5,307.7z"/><circle cx="-226.2" cy="307.7" r="10.7" fill="#f4b844"/><g><path fill="#083863" d="M-153.3,303.9c-1.1-4.9-11.5-7.4-21.7-7.6V276c0-0.5-0.2-1-0.6-1.4 c-1.7-4.9-12.9-7.2-23.4-7.2s-23.3,2.7-23.3,8.6c0,0.2,0,0.4,0.1,0.6l0.2,8.6c-1.4-0.3-1.8-0.4-3.2-0.4 c-12.7-0.8-23.6,8.8-24.5,21.4c-0.8,12.7,8.8,23.6,21.4,24.5c1,0.1,2,0.1,3,0c5.2-0.1,9.3-1.9,13.4-5.1c4,0.8,8.1,1.3,12.2,1.3 c1,5.3,12.5,7.7,23.2,7.7s23.4-2.7,23.4-8.6v-21C-153,304.6-153.1,304.2-153.3,303.9z M-218,276c0-0.8,5.1-4.6,19.2-4.6 c12.5,0,19.4,3.2,19.5,4.6s-6.6,4.5-19.5,4.5S-218,277.5-218,276z M-199,284.5c7.6,0,15.5-1.1,20-3.6v4.6 c-0.2,0.3-0.3,0.6-0.3,1c0,1.2-6.8,4.6-19.7,4.6c-4.3,0-8.7-0.4-12.9-1.4h-0.2c-1.8-1.4-3.8-2.5-5.9-3.4v-5.1 C-213.6,283.5-206.2,284.5-199,284.5z M-213.5,321.7c-7.7,7-19.7,6.4-26.7-1.3c-7-7.7-6.4-19.7,1.3-26.7c3.5-3.2,8-4.9,12.7-4.9 c1.9,0,3.8,0.3,5.6,0.8c2.5,0.8,4.7,2.1,6.7,3.8c3.2,2.7,5.4,6.4,6.2,10.5c0.3,1.2,0.4,2.5,0.4,3.8c0,1.9-0.3,3.8-0.8,5.7 C-209.1,316.6-211,319.5-213.5,321.7z M-208.4,322.2c1.5-1.9,2.7-4,3.6-6.2c1.5,0.2,3.2,0.2,4.9,0.3c0,0.2,0,0.3,0.1,0.5v6.1 C-202.7,322.8-205.5,322.6-208.4,322.2z M-203.4,305.6h3.3v6.6l-3.8-0.2c0.3-1.4,0.4-2.9,0.4-4.4 C-203.4,306.9-203.4,306.3-203.4,305.6z M-198.8,301.7h-0.2l-5.2-0.2c-0.7-2.5-1.8-4.8-3.2-6.9c2.8,0.3,5.6,0.5,8.4,0.5 c7.6,0,15.5-1.2,20-3.7v4.9C-187.3,296.5-195.7,298.3-198.8,301.7z M-196.1,304.5c0.8-1.6,7.6-4.5,19.1-4.5h0.1 c12.8,0,19.5,3.5,19.7,4.7l0,0c-0.1,1.3-7.1,4.6-19.7,4.6s-18.1-2.7-19.1-4.2S-196.1,304.7-196.1,304.5z M-157,326 c0,1.2-6.7,4.6-19.4,4.6c-12.7,0-19.3-3.5-19.3-4.6v-5.3c4.5,2.2,12,3.3,18.8,3.3c6.8,0,15.4-1.2,19.9-3.7V326z M-157,314.4 c-0.2,0.3-0.3,0.6-0.3,1c0,1.2-6.7,4.6-19.6,4.6c-10.3,0-17.3-2.3-19-4.1V310c4.5,2.3,12,3.4,19,3.4s15.4-1.2,19.9-3.6V314.4z"/><path fill="#083863" d="M-226.2,295c-7,0-12.7,5.7-12.7,12.7c0,7,5.7,12.7,12.7,12.7c7,0,12.7-5.7,12.7-12.7 C-213.5,300.7-219.2,295-226.2,295L-226.2,295z M-226.2,316.4c-4.8,0-8.7-3.9-8.7-8.7c0-4.8,3.9-8.7,8.7-8.7 c4.8,0,8.7,3.9,8.7,8.7C-217.5,312.5-221.4,316.4-226.2,316.4L-226.2,316.4z"/></g></svg>