<svg fill="#000000" xmlns="http://www.w3.org/2000/svg"  viewBox="0 0 512 512" width="64px" height="64px"><path d="M 255.96875 58.296875 C 146.99175 58.296875 58.332031 146.98695 58.332031 256.00195 C 58.332031 365.01395 146.99175 453.70117 255.96875 453.70117 C 308.80275 453.70117 358.45706 433.13883 395.78906 395.79883 C 433.11106 358.46683 453.66797 308.81795 453.66797 256.00195 C 453.66797 203.18495 433.11106 153.53612 395.78906 116.20312 C 358.45706 78.861125 308.80275 58.296875 255.96875 58.296875 z M 255.96875 64.611328 C 361.49775 64.611328 447.35156 150.46995 447.35156 256.00195 C 447.35156 361.53195 361.49775 447.38672 255.96875 447.38672 C 150.47575 447.38672 64.648438 361.53095 64.648438 256.00195 C 64.648438 150.46895 150.47475 64.611328 255.96875 64.611328 z M 255.96875 99.628906 C 169.78275 99.628906 99.664062 169.77795 99.664062 256.00195 C 99.664062 342.18595 169.78275 412.30078 255.96875 412.30078 C 342.19175 412.30078 412.3418 342.18595 412.3418 256.00195 C 412.3418 169.77695 342.19275 99.628906 255.96875 99.628906 z M 252.81055 105.98438 L 252.81055 118.3457 L 252.81055 133.76758 C 252.81055 135.51158 254.22475 136.92578 255.96875 136.92578 C 257.71275 136.92578 259.12695 135.51158 259.12695 133.76758 L 259.12695 105.98438 C 263.44885 106.0741 267.72544 106.34739 271.95117 106.79688 L 270.36719 119.06836 C 270.14419 120.79836 271.3667 122.38147 273.0957 122.60547 C 273.2327 122.62247 273.36791 122.63086 273.50391 122.63086 C 275.06691 122.63086 276.42586 121.46995 276.63086 119.87695 L 278.2168 107.59766 C 282.47036 108.23263 286.66481 109.04978 290.79492 110.03516 L 287.62695 121.97461 C 287.17895 123.65961 288.18214 125.39089 289.86914 125.83789 C 290.14114 125.90989 290.41264 125.94336 290.68164 125.94336 C 292.07864 125.94336 293.35547 125.00875 293.73047 123.59375 L 296.9082 111.62109 C 301.02378 112.7897 305.06297 114.13895 309.02734 115.64258 L 304.43359 127.10156 C 303.78559 128.72056 304.57045 130.55903 306.18945 131.20703 C 306.57445 131.36203 306.97128 131.43555 307.36328 131.43555 C 308.61528 131.43555 309.80387 130.68517 310.29688 129.45117 L 314.88477 118.00391 C 319.46097 119.96515 323.92023 122.14892 328.25 124.53906 L 314.41797 148.52539 C 313.54597 150.03639 314.06517 151.96784 315.57617 152.83984 C 316.07317 153.12584 316.61539 153.26172 317.15039 153.26172 C 318.24239 153.26172 319.30463 152.69464 319.89062 151.68164 L 333.71875 127.69922 C 337.37309 129.92201 340.91972 132.30495 344.36133 134.82227 L 336.89453 144.59375 C 335.83653 145.97975 336.10033 147.96053 337.48633 149.01953 C 338.05933 149.45653 338.73139 149.66797 339.40039 149.66797 C 340.35239 149.66797 341.29011 149.24169 341.91211 148.42969 L 349.38086 138.65625 C 352.71176 141.31331 355.92976 144.10583 359.02148 147.03125 L 350.39453 155.77148 C 349.16853 157.01248 349.18283 159.01033 350.42383 160.23633 C 351.03883 160.84333 351.84158 161.14648 352.64258 161.14648 C 353.45758 161.14648 354.27163 160.83203 354.89062 160.20703 L 363.51172 151.4707 C 366.48564 154.52953 369.33584 157.70976 372.04297 161.01172 L 362.375 168.60156 C 361.004 169.67856 360.7648 171.66316 361.8418 173.03516 C 362.4648 173.82816 363.39017 174.24219 364.32617 174.24219 C 365.00917 174.24219 365.69639 174.02236 366.27539 173.56836 L 375.94531 165.97852 C 378.92004 169.93312 381.70749 174.03612 384.28711 178.2793 L 360.28516 192.15039 C 358.77616 193.02339 358.25886 194.95484 359.13086 196.46484 C 359.71586 197.47684 360.77619 198.04297 361.86719 198.04297 C 362.40319 198.04297 362.94831 197.90614 363.44531 197.61914 L 387.44531 183.74609 C 389.49887 187.46789 391.39861 191.28426 393.13672 195.18945 L 381.75977 200.00391 C 380.15277 200.68391 379.40108 202.53658 380.08008 204.14258 C 380.59108 205.34658 381.76023 206.07031 382.99023 206.07031 C 383.40023 206.07031 383.81775 205.98936 384.21875 205.81836 L 395.58789 201.00781 C 397.15363 204.96899 398.54591 209.01599 399.77539 213.13281 L 387.85352 216.41016 C 386.17152 216.87316 385.18448 218.61097 385.64648 220.29297 C 386.03148 221.69497 387.30245 222.61523 388.68945 222.61523 C 388.96745 222.61523 389.24734 222.57895 389.52734 222.50195 L 401.45898 219.22266 C 402.49924 223.33574 403.36494 227.51659 404.05664 231.75586 L 391.83398 233.50977 C 390.10798 233.75677 388.90925 235.35698 389.15625 237.08398 C 389.38325 238.65798 390.7333 239.79492 392.2793 239.79492 C 392.4293 239.79492 392.57847 239.78472 392.73047 239.76172 L 404.94141 238.00977 C 405.52697 242.88747 405.88229 247.83531 405.98633 252.84375 L 378.26953 252.84375 C 376.52653 252.84375 375.11133 254.25795 375.11133 256.00195 C 375.11133 257.74495 376.52653 259.16016 378.26953 259.16016 L 405.98633 259.16016 C 405.897 263.45865 405.62528 267.71265 405.17969 271.91602 L 392.96875 270.33203 C 391.23975 270.10403 389.65564 271.32959 389.43164 273.05859 C 389.20764 274.78759 390.4282 276.3717 392.1582 276.5957 L 404.38086 278.18164 C 403.74721 282.43582 402.9337 286.63098 401.94922 290.76172 L 389.97852 287.6543 C 388.28752 287.2173 386.56691 288.23192 386.12891 289.91992 C 385.69191 291.60892 386.70458 293.33153 388.39258 293.76953 L 400.36133 296.875 C 399.19013 301.00285 397.83663 305.05355 396.32812 309.0293 L 384.87305 304.40234 C 383.25405 303.74634 381.41667 304.53144 380.76367 306.14844 C 380.11067 307.76544 380.88981 309.60581 382.50781 310.25781 L 393.96875 314.88672 C 392.01474 319.44416 389.83884 323.8843 387.45898 328.19727 L 363.43945 314.38086 C 361.93045 313.51186 359.99891 314.02897 359.12891 315.54297 C 358.25891 317.05497 358.77802 318.98647 360.29102 319.85547 L 384.29883 333.66602 C 382.07004 337.33155 379.68156 340.88829 377.15625 344.33984 L 367.44336 336.92773 C 366.05636 335.86773 364.07558 336.13348 363.01758 337.52148 C 361.96058 338.90748 362.22433 340.88827 363.61133 341.94727 L 373.32227 349.35742 C 370.66371 352.68922 367.8687 355.90757 364.94141 359 L 356.19141 350.41992 C 354.94641 349.19792 352.94756 349.21789 351.72656 350.46289 C 350.50456 351.70789 350.52453 353.70769 351.76953 354.92969 L 360.50195 363.49219 C 357.44603 366.46192 354.26737 369.30619 350.96875 372.00977 L 343.44141 362.35352 C 342.36741 360.97652 340.38277 360.73173 339.00977 361.80273 C 337.63377 362.87573 337.38894 364.85938 338.46094 366.23438 L 346.00195 375.91211 C 342.04438 378.88819 337.93804 381.6773 333.69141 384.25781 L 319.88867 360.32031 C 319.01567 358.80831 317.08617 358.29111 315.57617 359.16211 C 314.06517 360.03411 313.54597 361.96656 314.41797 363.47656 L 328.22266 387.41602 C 324.49736 389.47042 320.67661 391.37088 316.76758 393.10938 L 312.03906 381.73828 C 311.37006 380.12728 309.51816 379.3652 307.91016 380.0332 C 306.30016 380.7032 305.53803 382.55311 306.20703 384.16211 L 310.94727 395.56055 C 306.99374 397.12195 302.95425 398.5097 298.8457 399.73633 L 295.63086 387.83203 C 295.17486 386.14803 293.44077 385.15042 291.75977 385.60742 C 290.07577 386.06242 289.0782 387.79452 289.5332 389.47852 L 292.75781 401.41797 C 288.6589 402.45442 284.49186 403.31733 280.26758 404.00781 L 278.52734 391.79883 C 278.28034 390.07283 276.68708 388.86314 274.95508 389.11914 C 273.22908 389.36414 272.03039 390.96341 272.27539 392.69141 L 274.01562 404.89648 C 269.11982 405.48575 264.15454 405.84098 259.12695 405.94531 L 259.12695 378.23438 C 259.12695 376.49138 257.71275 375.07617 255.96875 375.07617 C 254.22475 375.07617 252.81055 376.49138 252.81055 378.23438 L 252.81055 405.94531 C 248.5159 405.85611 244.26415 405.58527 240.06445 405.14062 L 241.63867 392.92969 C 241.86167 391.20069 240.63916 389.61853 238.91016 389.39453 C 237.17816 389.17653 235.598 390.39305 235.375 392.12305 L 233.79883 404.34375 C 229.5465 403.71105 225.35363 402.8971 221.22461 401.91406 L 224.37891 390.0293 C 224.82691 388.3433 223.82272 386.61597 222.13672 386.16797 C 220.45372 385.72097 218.72144 386.7222 218.27344 388.4082 L 215.10938 400.32812 C 210.99369 399.16146 206.95478 397.81432 202.99023 396.3125 L 207.56641 384.90039 C 208.21541 383.28039 207.42955 381.44392 205.81055 380.79492 C 204.19255 380.14892 202.35213 380.93278 201.70312 382.55078 L 197.13086 393.95508 C 192.5569 391.99693 188.09934 389.81643 183.77148 387.42969 L 197.58789 363.47656 C 198.45989 361.96656 197.94069 360.03606 196.42969 359.16406 C 194.91869 358.29306 192.98819 358.81031 192.11719 360.32031 L 178.30273 384.26953 C 174.64748 382.04815 171.09875 379.66846 167.65625 377.15234 L 175.10938 367.40625 C 176.16937 366.02125 175.90453 364.04047 174.51953 362.98047 C 173.13453 361.92247 171.15375 362.18431 170.09375 363.57031 L 162.63672 373.32031 C 159.29695 370.65804 156.07203 367.85785 152.97266 364.92578 L 161.60547 356.23828 C 162.83447 355.00128 162.8288 353.00244 161.5918 351.77344 C 160.3558 350.54444 158.355 350.55016 157.125 351.78516 L 148.47852 360.48633 C 145.51327 357.4368 142.67259 354.26597 139.97266 350.97461 L 149.62305 343.40039 C 150.99505 342.32339 151.2352 340.3388 150.1582 338.9668 C 149.0812 337.5948 147.09661 337.35664 145.72461 338.43164 L 136.06836 346.00977 C 133.08246 342.04251 130.28712 337.92591 127.69922 333.66797 L 151.71484 319.85547 C 153.22684 318.98547 153.74695 317.05497 152.87695 315.54297 C 152.00695 314.02997 150.07645 313.50886 148.56445 314.38086 L 124.53711 328.19922 C 122.49381 324.49457 120.60369 320.69501 118.87305 316.80859 L 130.24805 312 C 131.85405 311.32 132.60478 309.46733 131.92578 307.86133 C 131.24678 306.25433 129.39511 305.50064 127.78711 306.18164 L 116.41797 310.98828 C 114.85186 307.02773 113.46217 302.97955 112.23242 298.86328 L 124.15039 295.58789 C 125.83239 295.12589 126.82138 293.38708 126.35938 291.70508 C 125.89738 290.02308 124.16056 289.03609 122.47656 289.49609 L 110.54883 292.77734 C 109.50819 288.66442 108.64309 284.48332 107.95117 280.24414 L 120.16992 278.48828 C 121.89692 278.24028 123.09566 276.64106 122.84766 274.91406 C 122.60066 273.18806 120.99848 271.99733 119.27148 272.23633 L 107.0625 273.99023 C 106.47694 269.11377 106.12354 264.16735 106.01953 259.16016 L 133.73633 259.16016 C 135.48033 259.16016 136.89553 257.74495 136.89453 256.00195 C 136.89453 254.25795 135.48033 252.84375 133.73633 252.84375 L 106.01953 252.84375 C 106.10884 248.53998 106.38025 244.28072 106.82617 240.07227 L 119.11914 241.60156 C 119.25214 241.61756 119.38367 241.625 119.51367 241.625 C 121.08367 241.625 122.44458 240.45447 122.64258 238.85547 C 122.85858 237.12547 121.62944 235.54703 119.89844 235.33203 L 107.625 233.80859 C 108.25763 229.55769 109.07032 225.36601 110.05273 221.23828 L 122.02734 224.34375 C 122.29334 224.41275 122.55927 224.44531 122.82227 224.44531 C 124.22627 224.44531 125.50991 223.50013 125.87891 222.07812 C 126.31591 220.38913 125.30128 218.66652 123.61328 218.22852 L 111.63867 215.12305 C 112.80847 210.99475 114.15934 206.94306 115.66602 202.9668 L 127.12695 207.59766 C 127.51395 207.75466 127.91359 207.82812 128.30859 207.82812 C 129.55659 207.82812 130.74028 207.08352 131.23828 205.85352 C 131.89128 204.23652 131.10919 202.39519 129.49219 201.74219 L 118.02344 197.10742 C 119.98252 192.53192 122.16316 188.07533 124.55078 183.74609 L 148.56055 197.61719 C 149.05755 197.90419 149.60072 198.04297 150.13672 198.04297 C 151.22772 198.04297 152.28905 197.47589 152.87305 196.46289 C 153.74605 194.95289 153.22875 193.02144 151.71875 192.14844 L 127.71094 178.27734 C 129.93182 174.6227 132.31089 171.07675 134.82617 167.63477 L 144.63867 175.07812 C 145.21067 175.51112 145.87992 175.7207 146.54492 175.7207 C 147.49892 175.7207 148.4415 175.29166 149.0625 174.47266 C 150.1165 173.08366 149.84408 171.10283 148.45508 170.04883 L 138.65625 162.61328 C 141.31291 159.27986 144.10602 156.0608 147.03125 152.9668 L 155.81445 161.58008 C 156.42945 162.18308 157.22739 162.48242 158.02539 162.48242 C 158.84339 162.48242 159.6613 162.16711 160.2793 161.53711 C 161.5013 160.29211 161.48133 158.29131 160.23633 157.07031 L 151.46875 148.47266 C 154.52679 145.49721 157.70656 142.64794 161.00781 139.93945 L 168.56445 149.58594 C 169.18745 150.38094 170.11473 150.79492 171.05273 150.79492 C 171.73373 150.79492 172.42005 150.57505 172.99805 150.12305 C 174.37105 149.04705 174.61116 147.06345 173.53516 145.68945 L 165.97266 136.03516 C 169.92732 133.05824 174.03194 130.26886 178.27539 127.6875 L 192.11523 151.68164 C 192.69923 152.69564 193.76152 153.26172 194.85352 153.26172 C 195.38952 153.26172 195.93369 153.12489 196.42969 152.83789 C 197.94069 151.96689 198.45794 150.03639 197.58594 148.52539 L 183.74219 124.52539 C 187.46927 122.46786 191.294 120.56507 195.20508 118.82422 L 199.96094 130.26172 C 200.46494 131.47572 201.63995 132.20703 202.87695 132.20703 C 203.28095 132.20703 203.69284 132.12884 204.08984 131.96484 C 205.70084 131.29484 206.46197 129.44789 205.79297 127.83789 L 201.02539 116.37109 C 204.96617 114.8136 208.99302 113.42755 213.08789 112.20312 L 216.37891 124.11719 C 216.76591 125.51719 218.03688 126.43359 219.42188 126.43359 C 219.70088 126.43359 219.98363 126.39536 220.26562 126.31836 C 221.94662 125.85336 222.9318 124.11459 222.4668 122.43359 L 219.17383 110.51953 C 223.29162 109.47667 227.47829 108.60916 231.72266 107.91602 L 233.47852 120.13477 C 233.70452 121.70877 235.05656 122.84375 236.60156 122.84375 C 236.75056 122.84375 236.90073 122.83255 237.05273 122.81055 C 238.77973 122.56255 239.97847 120.96333 239.73047 119.23633 L 237.97656 107.02734 C 242.85377 106.44137 247.80257 106.08845 252.81055 105.98438 z M 182.81641 201.44727 C 181.80384 201.39949 180.78664 201.83977 180.13477 202.71289 C 179.09077 204.10989 179.37839 206.08786 180.77539 207.13086 L 242.16016 252.97656 C 241.94631 253.95275 241.82617 254.96255 241.82617 256.00195 C 241.82617 263.79995 248.17075 270.14453 255.96875 270.14453 C 263.80475 270.14453 270.17969 263.79995 270.17969 256.00195 C 270.17969 254.48848 269.93264 253.03231 269.48828 251.66406 L 313.12695 225.9082 C 314.62795 225.0222 315.12723 223.08794 314.24023 221.58594 C 313.35323 220.08394 311.41802 219.5847 309.91602 220.4707 L 266.23438 246.25 C 263.64488 243.55098 260.00558 241.85938 255.96875 241.85938 C 251.51079 241.85938 247.5334 243.93855 244.93945 247.17188 L 184.55469 202.07031 C 184.03119 201.67919 183.42395 201.47593 182.81641 201.44727 z M 255.96875 248.17578 C 258.86561 248.17578 261.34392 249.653 262.7168 251.90039 C 262.7299 251.92389 262.73624 251.94936 262.75 251.97266 C 262.7776 252.01938 262.81027 252.0607 262.83984 252.10547 C 263.48947 253.24752 263.86296 254.57199 263.86328 256.00195 C 263.86328 260.31695 260.32275 263.82812 255.96875 263.82812 C 251.65375 263.82812 248.14258 260.31695 248.14258 256.00195 C 248.14258 251.68595 251.65375 248.17578 255.96875 248.17578 z"/></svg>