<svg xmlns="http://www.w3.org/2000/svg"  viewBox="0 0 30 30" width="40px" height="40px"><path fill="#f5ce85" d="M4.5 25.5H25.5V28.5H4.5z"/><path fill="#967a44" d="M25,26v2H5v-2H25 M26,25H4v4h22V25L26,25z"/><path fill="#f5ce85" d="M4.5 22.5H25.5V25.5H4.5z"/><path fill="#967a44" d="M25,23v2H5v-2H25 M26,22H4v4h22V22L26,22z"/><path fill="#f5ce85" d="M4.5 19.5H25.5V22.5H4.5z"/><path fill="#967a44" d="M25,20v2H5v-2H25 M26,19H4v4h22V19L26,19z"/><path fill="#f5ce85" d="M4.5 16.5H25.5V19.5H4.5z"/><path fill="#967a44" d="M25,17v2H5v-2H25 M26,16H4v4h22V16L26,16z"/><path fill="#f5ce85" d="M4.5 13.5H25.5V16.5H4.5z"/><path fill="#967a44" d="M25,14v2H5v-2H25 M26,13H4v4h22V13L26,13z"/><path fill="#f5ce85" d="M4.5 10.5H25.5V13.5H4.5z"/><path fill="#967a44" d="M25,11v2H5v-2H25 M26,10H4v4h22V10L26,10z"/><path fill="#f5ce85" d="M4.7 10.5L9.2 7.5 20.8 7.5 25.3 10.5z"/><path fill="#967a44" d="M20.7,8l3,2H6.3l3-2H20.7 M21,7H9l-6,4h24L21,7L21,7z"/><path fill="#f5ce85" d="M9.7 7.5L14.2 4.5 16.8 4.5 21.3 7.5z"/><path fill="#967a44" d="M16.7,5l3,2h-8.4l3-2H16.7 M17,4h-3L8,8h15L17,4L17,4z"/><path fill="#f5ce85" d="M26 25.5A1.5 1.5 0 1 0 26 28.5A1.5 1.5 0 1 0 26 25.5Z"/><path fill="#967a44" d="M26,26c0.6,0,1,0.4,1,1s-0.4,1-1,1s-1-0.4-1-1S25.4,26,26,26 M26,25c-1.1,0-2,0.9-2,2s0.9,2,2,2 s2-0.9,2-2S27.1,25,26,25L26,25z"/><path fill="#f5ce85" d="M26 22.5A1.5 1.5 0 1 0 26 25.5A1.5 1.5 0 1 0 26 22.5Z"/><path fill="#967a44" d="M26,23c0.6,0,1,0.4,1,1s-0.4,1-1,1s-1-0.4-1-1S25.4,23,26,23 M26,22c-1.1,0-2,0.9-2,2s0.9,2,2,2 s2-0.9,2-2S27.1,22,26,22L26,22z"/><path fill="#f5ce85" d="M26 19.5A1.5 1.5 0 1 0 26 22.5A1.5 1.5 0 1 0 26 19.5Z"/><path fill="#967a44" d="M26,20c0.6,0,1,0.4,1,1s-0.4,1-1,1s-1-0.4-1-1S25.4,20,26,20 M26,19c-1.1,0-2,0.9-2,2s0.9,2,2,2 s2-0.9,2-2S27.1,19,26,19L26,19z"/><path fill="#f5ce85" d="M26 16.5A1.5 1.5 0 1 0 26 19.5A1.5 1.5 0 1 0 26 16.5Z"/><path fill="#967a44" d="M26,17c0.6,0,1,0.4,1,1s-0.4,1-1,1s-1-0.4-1-1S25.4,17,26,17 M26,16c-1.1,0-2,0.9-2,2s0.9,2,2,2 s2-0.9,2-2S27.1,16,26,16L26,16z"/><g><path fill="#f5ce85" d="M26 13.5A1.5 1.5 0 1 0 26 16.5A1.5 1.5 0 1 0 26 13.5Z"/><path fill="#967a44" d="M26,14c0.6,0,1,0.4,1,1s-0.4,1-1,1s-1-0.4-1-1S25.4,14,26,14 M26,13c-1.1,0-2,0.9-2,2s0.9,2,2,2 s2-0.9,2-2S27.1,13,26,13L26,13z"/></g><g><path fill="#f5ce85" d="M26 10.5A1.5 1.5 0 1 0 26 13.5A1.5 1.5 0 1 0 26 10.5Z"/><path fill="#967a44" d="M26,11c0.6,0,1,0.4,1,1s-0.4,1-1,1s-1-0.4-1-1S25.4,11,26,11 M26,10c-1.1,0-2,0.9-2,2s0.9,2,2,2 s2-0.9,2-2S27.1,10,26,10L26,10z"/></g><g><path fill="#f5ce85" d="M4 25.5A1.5 1.5 0 1 0 4 28.5A1.5 1.5 0 1 0 4 25.5Z"/><path fill="#967a44" d="M4,26c0.6,0,1,0.4,1,1s-0.4,1-1,1s-1-0.4-1-1S3.4,26,4,26 M4,25c-1.1,0-2,0.9-2,2s0.9,2,2,2 s2-0.9,2-2S5.1,25,4,25L4,25z"/></g><g><path fill="#f5ce85" d="M4 22.5A1.5 1.5 0 1 0 4 25.5A1.5 1.5 0 1 0 4 22.5Z"/><path fill="#967a44" d="M4,23c0.6,0,1,0.4,1,1s-0.4,1-1,1s-1-0.4-1-1S3.4,23,4,23 M4,22c-1.1,0-2,0.9-2,2s0.9,2,2,2 s2-0.9,2-2S5.1,22,4,22L4,22z"/></g><g><path fill="#f5ce85" d="M4 19.5A1.5 1.5 0 1 0 4 22.5A1.5 1.5 0 1 0 4 19.5Z"/><path fill="#967a44" d="M4,20c0.6,0,1,0.4,1,1s-0.4,1-1,1s-1-0.4-1-1S3.4,20,4,20 M4,19c-1.1,0-2,0.9-2,2s0.9,2,2,2 s2-0.9,2-2S5.1,19,4,19L4,19z"/></g><g><path fill="#f5ce85" d="M4 16.5A1.5 1.5 0 1 0 4 19.5A1.5 1.5 0 1 0 4 16.5Z"/><path fill="#967a44" d="M4,17c0.6,0,1,0.4,1,1s-0.4,1-1,1s-1-0.4-1-1S3.4,17,4,17 M4,16c-1.1,0-2,0.9-2,2s0.9,2,2,2 s2-0.9,2-2S5.1,16,4,16L4,16z"/></g><g><path fill="#f5ce85" d="M4 13.5A1.5 1.5 0 1 0 4 16.5A1.5 1.5 0 1 0 4 13.5Z"/><path fill="#967a44" d="M4,14c0.6,0,1,0.4,1,1s-0.4,1-1,1s-1-0.4-1-1S3.4,14,4,14 M4,13c-1.1,0-2,0.9-2,2s0.9,2,2,2 s2-0.9,2-2S5.1,13,4,13L4,13z"/></g><g><path fill="#f5ce85" d="M4 10.5A1.5 1.5 0 1 0 4 13.5A1.5 1.5 0 1 0 4 10.5Z"/><path fill="#967a44" d="M4,11c0.6,0,1,0.4,1,1s-0.4,1-1,1s-1-0.4-1-1S3.4,11,4,11 M4,10c-1.1,0-2,0.9-2,2s0.9,2,2,2 s2-0.9,2-2S5.1,10,4,10L4,10z"/></g><g><path fill="#b08159" d="M15 4.6L1.5 13 1.5 9.9 15 1.6 28.5 9.9 28.5 13z"/><path fill="#704e34" d="M15,2.2l13,8v1.9L15.5,4.4L15,4.1l-0.5,0.3L2,12.1v-1.9L15,2.2 M15,1L1,9.6v4.2l14-8.6l14,8.6V9.6 L15,1L15,1z"/></g><g><path fill="#b08159" d="M11.5 16.5H18.5V28.5H11.5z"/><path fill="#704e34" d="M18,17v11h-6V17H18 M19,16h-8v13h8V16L19,16z"/></g><path fill="#704e34" d="M16 22H17V24H16z"/></svg>