<svg xmlns="http://www.w3.org/2000/svg"  viewBox="0 0 64 64" width="256px" height="256px"><path fill="#f0f4f7" d="M17.1,22.19v30A3.78,3.78,0,0,0,20.89,56H46.43a3.78,3.78,0,0,0,3.79-3.8V25.83H44.78v8.09l-9.05-5,5.58-3.09H37.18l-3.52,2-3.52-2H26l5.58,3.09-9,5V25.83H20.79A3.66,3.66,0,0,1,17.1,22.19Zm16.56,7.87,9.05,5H24.61ZM22.54,38h7.55a1,1,0,0,1,0,2H22.54a1,1,0,0,1,0-2Zm11.78,0H44.78a1,1,0,0,1,0,2H34.32a1,1,0,0,1,0-2ZM22.54,41.91h13a1,1,0,0,1,0,2h-13a1,1,0,1,1,0-2Zm17.18,0h5.06a1,1,0,0,1,0,2H39.72a1,1,0,0,1,0-2ZM22.54,45.83h7.55a1,1,0,1,1,0,2H22.54a1,1,0,0,1,0-2Zm11.78,0H44.78a1,1,0,0,1,0,2H34.32a1,1,0,0,1,0-2ZM22.54,49.75h13a1,1,0,0,1,0,2h-13a1,1,0,1,1,0-2Zm17.18,0h5.06a1,1,0,0,1,0,2H39.72a1,1,0,0,1,0-2Z"/><path fill="#f0f4f7" d="M24.47,15.4v6.74a3.67,3.67,0,0,1-3.65,3.69h29.4a4.1,4.1,0,0,0,4.11-4.1V15.62A7.61,7.61,0,0,0,46.71,8H17.07A7.4,7.4,0,0,1,24,12.71,7.48,7.48,0,0,1,24.47,15.4Z"/><path fill="#94d8e5" d="M22.54,25.83v8.09l9.05-5L26,25.83Zm7.6,0,3.52,2,3.52-2Zm11.17,0-5.58,3.09,9.05,5V25.83Zm-7.65,4.23-9,5h18.1Z"/><path fill="#d0e1e8" d="M17.07,8a7.38,7.38,0,0,0-7.4,7.4V42.76a3.81,3.81,0,0,0,3.81,3.8H17.1v-30a3.82,3.82,0,0,1,3.83-3.83h3A7.37,7.37,0,0,0,17.07,8Z"/><path fill="#e0e9ee" d="M20.93,12.7a3.83,3.83,0,0,0-3.83,3.84v5.65a3.69,3.69,0,0,0,7.37,0V15.4a7.36,7.36,0,0,0-.5-2.7Z"/><path fill="#d0e1e8" d="M22.54,38a1,1,0,0,0,0,2h7.55a1,1,0,0,0,0-2Z"/><path fill="#d0e1e8" d="M22.54,41.91a1,1,0,1,0,0,2h13a1,1,0,0,0,0-2Z"/><path fill="#d0e1e8" d="M22.54,45.83a1,1,0,0,0,0,2h7.55a1,1,0,1,0,0-2Z"/><path fill="#d0e1e8" d="M22.54,49.75a1,1,0,1,0,0,2h13a1,1,0,0,0,0-2Z"/><path fill="#d0e1e8" d="M34.32,38a1,1,0,0,0,0,2H44.78a1,1,0,0,0,0-2Z"/><path fill="#d0e1e8" d="M39.72,41.91a1,1,0,0,0,0,2h5.06a1,1,0,0,0,0-2Z"/><path fill="#d0e1e8" d="M34.32,45.83a1,1,0,0,0,0,2H44.78a1,1,0,0,0,0-2Z"/><path fill="#d0e1e8" d="M39.72,49.75a1,1,0,0,0,0,2h5.06a1,1,0,0,0,0-2Z"/></svg>