<svg xmlns="http://www.w3.org/2000/svg"  viewBox="0 0 128 128" width="64px" height="64px"><path fill="#433c68" d="M64,40.24H10.382a2.771,2.771,0,0,0-2.231,1.523l-4.8,8.114C2.876,50.8,3.4,52,4.278,52H123.722c.874,0,1.4-1.207.93-2.126l-4.8-8.114a2.771,2.771,0,0,0-2.231-1.523H64Z"/><rect width="116.023" height="73.997" x="5.989" y="52.003" fill="#4848a3"/><path fill="#fff0d7" d="M106.974,101.6h.578a4.58,4.58,0,0,1,4.58,4.58V126a0,0,0,0,1,0,0h-9.738a0,0,0,0,1,0,0V106.179A4.58,4.58,0,0,1,106.974,101.6Z"/><path fill="#433c68" d="M64,98.895h0a8.061,8.061,0,0,1,8.061,8.061V126a0,0,0,0,1,0,0H55.939a0,0,0,0,1,0,0V106.956A8.061,8.061,0,0,1,64,98.895Z"/><rect width="23.033" height="4.607" x="52.49" y="121.393" fill="#5972c9" rx="2.303" ry="2.303"/><path fill="#fff0d7" d="M16.3,62.926h9.738a0,0,0,0,1,0,0v16.5a1,1,0,0,1-1,1H17.3a1,1,0,0,1-1-1v-16.5A0,0,0,0,1,16.3,62.926Z" transform="rotate(180 21.17 71.675)"/><path fill="#fff0d7" d="M37.719,62.926h9.738a0,0,0,0,1,0,0v16.5a1,1,0,0,1-1,1H38.719a1,1,0,0,1-1-1v-16.5a0,0,0,0,1,0,0Z" transform="rotate(180 42.588 71.675)"/><path fill="#fff0d7" d="M59.137,62.926h9.738a0,0,0,0,1,0,0v16.5a1,1,0,0,1-1,1H60.137a1,1,0,0,1-1-1v-16.5a0,0,0,0,1,0,0Z" transform="rotate(180 64.006 71.675)"/><path fill="#fff0d7" d="M80.555,62.926h9.738a0,0,0,0,1,0,0v16.5a1,1,0,0,1-1,1H81.555a1,1,0,0,1-1-1v-16.5a0,0,0,0,1,0,0Z" transform="rotate(180 85.424 71.675)"/><path fill="#fff0d7" d="M101.973,62.926h9.738a0,0,0,0,1,0,0v16.5a1,1,0,0,1-1,1h-7.738a1,1,0,0,1-1-1v-16.5a0,0,0,0,1,0,0Z" transform="rotate(180 106.841 71.675)"/><path fill="#fff0d7" d="M86.528,101.677h.578a4.58,4.58,0,0,1,4.58,4.58V126a0,0,0,0,1,0,0H81.948a0,0,0,0,1,0,0V106.257A4.58,4.58,0,0,1,86.528,101.677Z"/><path fill="#fff0d7" d="M15.868,101.6h9.738a0,0,0,0,1,0,0V121.42a4.58,4.58,0,0,1-4.58,4.58h-.578a4.58,4.58,0,0,1-4.58-4.58V101.6A0,0,0,0,1,15.868,101.6Z" transform="rotate(180 20.737 113.8)"/><path fill="#fff0d7" d="M36.314,101.677h9.738a0,0,0,0,1,0,0V121.42a4.58,4.58,0,0,1-4.58,4.58h-.578a4.58,4.58,0,0,1-4.58-4.58V101.677A0,0,0,0,1,36.314,101.677Z" transform="rotate(180 41.183 113.838)"/><path fill="#332c44" d="M124.917,127.25H3.083a1.25,1.25,0,1,1,0-2.5H124.917a1.25,1.25,0,0,1,0,2.5Z"/><path fill="#3d335b" d="M125.729,49.24l-4.8-8.114A4,4,0,0,0,117.6,38.99H10.371a4,4,0,0,0-3.3,2.136l-4.839,8.18a2.889,2.889,0,0,0,.1,2.809,2.287,2.287,0,0,0,1.943,1.138h.46V126a1.25,1.25,0,0,0,1.25,1.25H122.012a1.25,1.25,0,0,0,1.25-1.25V53.253h.46a2.287,2.287,0,0,0,1.943-1.138A2.917,2.917,0,0,0,125.729,49.24Zm-4.967,75.51H7.238v-71.5H120.762Zm2.8-74H4.44a.365.365,0,0,1-.016-.239l4.8-8.115A1.619,1.619,0,0,1,10.4,41.49H117.607a1.619,1.619,0,0,1,1.166.909l4.767,8.048A.423.423,0,0,1,123.559,50.753Z"/><path fill="#3d335b" d="M107.552,100.349h-.578a5.837,5.837,0,0,0-5.83,5.831V126a1.25,1.25,0,0,0,1.25,1.25h9.738a1.25,1.25,0,0,0,1.25-1.25V106.18A5.837,5.837,0,0,0,107.552,100.349Zm-1.539,24.4h-2.369v-9.739h2.369Zm0-12.239h-2.369V106.18a3.323,3.323,0,0,1,2.369-3.173Zm4.869,12.239h-2.369v-9.739h2.369Zm0-12.239h-2.369v-9.5a3.324,3.324,0,0,1,2.369,3.173Z"/><path fill="#3d335b" d="M25.039,61.676H17.3a2.253,2.253,0,0,0-2.25,2.25v16.5a1.25,1.25,0,0,0,1.25,1.25h9.737a1.25,1.25,0,0,0,1.25-1.25v-16.5A2.253,2.253,0,0,0,25.039,61.676Zm-.25,6.091H22.421V64.176h2.368Zm-4.868-3.591v3.591H17.552V64.176Zm-2.369,6.091h2.369v8.907H17.552Zm4.869,8.907V70.267h2.368v8.907Z"/><path fill="#3d335b" d="M46.457,61.676H38.719a2.253,2.253,0,0,0-2.25,2.25v16.5a1.25,1.25,0,0,0,1.25,1.25h9.738a1.25,1.25,0,0,0,1.25-1.25v-16.5A2.253,2.253,0,0,0,46.457,61.676Zm-.25,6.091H43.838V64.176h2.369Zm-4.869-3.591v3.591H38.969V64.176Zm-2.369,6.091h2.369v8.907H38.969Zm4.869,8.907V70.267h2.369v8.907Z"/><path fill="#3d335b" d="M67.875,61.676H60.137a2.253,2.253,0,0,0-2.25,2.25v16.5a1.25,1.25,0,0,0,1.25,1.25h9.738a1.25,1.25,0,0,0,1.25-1.25v-16.5A2.253,2.253,0,0,0,67.875,61.676Zm-.25,6.091H65.256V64.176h2.369Zm-4.869-3.591v3.591H60.387V64.176Zm-2.369,6.091h2.369v8.907H60.387Zm4.869,8.907V70.267h2.369v8.907Z"/><path fill="#3d335b" d="M89.293,61.676H81.555a2.253,2.253,0,0,0-2.25,2.25v16.5a1.25,1.25,0,0,0,1.25,1.25h9.738a1.25,1.25,0,0,0,1.25-1.25v-16.5A2.253,2.253,0,0,0,89.293,61.676Zm-.25,6.091H86.674V64.176h2.369Zm-4.869-3.591v3.591H81.805V64.176Zm-2.369,6.091h2.369v8.907H81.805Zm4.869,8.907V70.267h2.369v8.907Z"/><path fill="#3d335b" d="M110.711,61.676h-7.738a2.253,2.253,0,0,0-2.25,2.25v16.5a1.25,1.25,0,0,0,1.25,1.25h9.738a1.25,1.25,0,0,0,1.25-1.25v-16.5A2.253,2.253,0,0,0,110.711,61.676Zm-.25,6.091h-2.369V64.176h2.369Zm-4.869-3.591v3.591h-2.369V64.176Zm-2.369,6.091h2.369v8.907h-2.369Zm4.869,8.907V70.267h2.369v8.907Z"/><path fill="#3d335b" d="M87.105,100.427h-.577a5.837,5.837,0,0,0-5.83,5.831V126a1.25,1.25,0,0,0,1.25,1.25h9.739a1.25,1.25,0,0,0,1.25-1.25V106.258A5.839,5.839,0,0,0,87.105,100.427ZM85.567,124.75H83.2v-9.661h2.369Zm0-12.161H83.2v-6.331a3.325,3.325,0,0,1,2.369-3.173Zm4.87,12.161h-2.37v-9.661h2.37Zm0-12.161h-2.37v-9.5a3.326,3.326,0,0,1,2.37,3.173Z"/><path fill="#3d335b" d="M21.026,100.349h-.578a5.837,5.837,0,0,0-5.83,5.831V126a1.25,1.25,0,0,0,1.25,1.25h9.738a1.25,1.25,0,0,0,1.25-1.25V106.18A5.837,5.837,0,0,0,21.026,100.349Zm-1.539,24.4H17.118v-9.739h2.369Zm0-12.239H17.118V106.18a3.324,3.324,0,0,1,2.369-3.173Zm4.869,12.239H21.987v-9.739h2.369Zm0-12.239H21.987v-9.5a3.323,3.323,0,0,1,2.369,3.173Z"/><path fill="#3d335b" d="M41.472,100.427H40.9a5.839,5.839,0,0,0-5.832,5.831V126a1.25,1.25,0,0,0,1.25,1.25h9.739A1.25,1.25,0,0,0,47.3,126V106.258A5.837,5.837,0,0,0,41.472,100.427ZM39.933,124.75h-2.37v-9.661h2.37Zm0-12.161h-2.37v-6.331a3.326,3.326,0,0,1,2.37-3.173ZM44.8,124.75H42.433v-9.661H44.8Zm0-12.161H42.433v-9.5a3.325,3.325,0,0,1,2.369,3.173Z"/><rect width="123.51" height="5.989" x="2.251" y="86.476" fill="#5972c9" rx="2.994" ry="2.994"/><path fill="#3d335b" d="M122.767,93.715H5.245a4.244,4.244,0,0,1,0-8.488H122.767a4.244,4.244,0,1,1,0,8.488ZM5.245,87.727a1.744,1.744,0,0,0,0,3.488H122.767a1.744,1.744,0,1,0,0-3.488Z"/><path fill="#3d335b" d="M124.917,127.25H3.083a1.25,1.25,0,1,1,0-2.5H124.917a1.25,1.25,0,0,1,0,2.5Z"/><path fill="#3d335b" d="M73.312,120.153v-13.2a9.312,9.312,0,0,0-18.624,0v13.2a3.549,3.549,0,0,0,.1,7.1H73.219a3.549,3.549,0,0,0,.093-7.1Zm-16.124-13.2a6.812,6.812,0,0,1,13.624,0v13.188H57.188ZM73.219,124.75H54.793a1.053,1.053,0,1,1,0-2.106H73.219a1.053,1.053,0,1,1,0,2.106Z"/><circle cx="64.04" cy="57.465" r="2.447" fill="#7391e5"/><path fill="#3d335b" d="M64.04,61.161a3.7,3.7,0,1,1,3.7-3.7A3.7,3.7,0,0,1,64.04,61.161Zm0-4.893a1.2,1.2,0,1,0,1.2,1.2A1.2,1.2,0,0,0,64.04,56.268Z"/></svg>