<svg xmlns="http://www.w3.org/2000/svg"  viewBox="0 0 48 48" width="48px" height="48px"><polygon fill="#f5bc00" points="32,6 24,11 16,6 6,13 6,42 42,42 42,13"/><rect width="4" height="4" x="10" y="18" fill="#eb7900"/><rect width="4" height="4" x="10" y="26" fill="#eb7900"/><rect width="4" height="4" x="18" y="18" fill="#eb7900"/><rect width="4" height="4" x="18" y="26" fill="#eb7900"/><rect width="4" height="4" x="26" y="18" fill="#eb7900"/><rect width="4" height="4" x="26" y="26" fill="#eb7900"/><rect width="4" height="4" x="34" y="18" fill="#eb7900"/><rect width="4" height="4" x="34" y="26" fill="#eb7900"/><rect width="4" height="4" x="10" y="34" fill="#eb7900"/><rect width="4" height="4" x="18" y="34" fill="#eb7900"/><rect width="4" height="4" x="26" y="34" fill="#eb7900"/><rect width="4" height="4" x="34" y="34" fill="#eb7900"/><polygon fill="#f55376" points="44.609,17.275 31.938,8.398 24,13.358 16.062,8.398 3.391,17.275 1.096,13.999 15.938,3.602 24,8.642 32.062,3.602 46.904,13.999"/><polygon fill="#eb0000" points="42,10.563 32.062,3.602 24,8.642 15.938,3.602 6,10.563 6,15.447 16.062,8.398 24,13.358 31.938,8.398 42,15.447"/></svg>