<svg xmlns="http://www.w3.org/2000/svg"  viewBox="0 0 32 32" width="32px" height="32px"><path fill="#13e4ea" d="M27.14,8.01A19.827,19.827,0,0,1,16.71,3.29a1.008,1.008,0,0,0-1.42,0A19.722,19.722,0,0,1,4.86,8.01,1,1,0,0,0,4,9v.83a21.143,21.143,0,0,0,9.98,17.88l1.5.92a.976.976,0,0,0,1.04,0l1.5-.92A21.143,21.143,0,0,0,28,9.83V9A1,1,0,0,0,27.14,8.01Z"/><path fill="#b6ffff" d="M22.817,11.067a12.144,12.144,0,0,1-6.383-2.888.615.615,0,0,0-.868,0,11.436,11.436,0,0,1-6.007,2.829,1.141,1.141,0,0,0-.7.224.85.85,0,0,0-.213.517,11.8,11.8,0,0,0,.907,5.1,13.041,13.041,0,0,0,2.819,4.361,15.663,15.663,0,0,0,3.067,2.327,1.143,1.143,0,0,0,.565.217,1.149,1.149,0,0,0,.606-.235A15.343,15.343,0,0,0,20.5,20.231a13.053,13.053,0,0,0,2.31-4.408,14.364,14.364,0,0,0,.534-4.15A.613.613,0,0,0,22.817,11.067Z"/><path fill="#007da1" d="M16,28.778a1,1,0,0,1-.524-.148l-1.493-.919A20.866,20.866,0,0,1,4,9.832V9a1,1,0,0,1,.858-.99A19.773,19.773,0,0,0,15.293,3.293a1,1,0,0,1,1.414,0A19.922,19.922,0,0,0,27.142,8.01,1,1,0,0,1,28,9v.832a20.867,20.867,0,0,1-9.982,17.879l-1.494.919A1,1,0,0,1,16,28.778ZM6,9.851a18.878,18.878,0,0,0,9.032,16.157l.968.6.968-.6A18.878,18.878,0,0,0,26,9.851,22.2,22.2,0,0,1,16,5.335,22.2,22.2,0,0,1,6,9.851Z"/><path fill="#007da1" d="M16,24.46a1,1,0,0,1-.527-.15l-.951-.59A13.651,13.651,0,0,1,8,12.03v-.52a1,1,0,0,1,.858-.99A12.362,12.362,0,0,0,15.3,7.611a1.006,1.006,0,0,1,1.412,0A10.909,10.909,0,0,0,19.53,9.442a1,1,0,1,1-.84,1.815A14.033,14.033,0,0,1,16,9.634a14.62,14.62,0,0,1-6,2.716,11.662,11.662,0,0,0,5.571,9.67l.425.263.423-.262A11.665,11.665,0,0,0,22,12.03v-.162a1,1,0,0,1-.07-.368.98.98,0,0,1,1.187-.983A1,1,0,0,1,24,11.51v.52a13.651,13.651,0,0,1-6.524,11.691l-.949.589A1,1,0,0,1,16,24.46Z"/></svg>