<svg xmlns="http://www.w3.org/2000/svg"  viewBox="0 0 48 48" width="48px" height="48px"><linearGradient id="MbRNwNPNpeqGehoxuRD8ma" x1="11.801" x2="29.503" y1="3.365" y2="39.45" gradientUnits="userSpaceOnUse"><stop offset="0" stop-color="#5c65d6"/><stop offset=".999" stop-color="#464eb0"/></linearGradient><path fill="url(#MbRNwNPNpeqGehoxuRD8ma)" d="M17.855,44.028c-0.836,0-1.208-0.506-1.385-0.749c-0.016-0.021-0.03-0.043-0.045-0.063	c-0.49-0.16-0.673-0.488-0.739-0.675c-0.146-0.413,0.003-0.77,0.157-1.023c-0.117-0.061-0.228-0.122-0.322-0.185	c-0.083-0.056-0.155-0.113-0.224-0.168c-0.018-0.014-0.035-0.029-0.053-0.043c-0.241-0.006-0.488-0.023-0.719-0.17	c-0.366-0.232-0.729-0.657-0.39-2.756c0.043-0.266,0.145-0.479,0.227-0.65c0.029-0.061,0.061-0.12,0.08-0.182	c0.152-0.485,0.129-1.032,0.104-1.612l-0.013-0.323c-0.025-0.759-0.048-1.437-0.157-2.112c-0.017-0.1-0.048-0.195-0.075-0.287	c-0.109-0.366-0.293-0.98,0.13-1.604c0.111-0.164,0.235-0.278,0.325-0.361c0.026-0.023,0.054-0.046,0.077-0.073	c-0.015,0.007-0.008-0.034,0.001-0.075c0.035-0.171,0.082-0.404,0.23-0.638c0.446-0.71,1.098-0.658,1.378-0.635	c0.013,0.001,0.028,0.002,0.043,0.003c0.021-0.144,0.05-0.299,0.103-0.467c0.294-0.916,1.274-1.506,1.802-1.822	c0.058-0.035,0.106-0.063,0.137-0.084c0.49-0.377,0.921-0.874,1.2-1.39c0.068-0.124,0.121-0.25,0.174-0.369	c0.205-0.47,0.462-1.053,1.203-1.417c0.159-0.078,0.333-0.164,0.39-0.208c-0.011-0.003,0.01-0.113-0.002-0.402	c-0.004-0.109-0.003-0.234-0.002-0.367c0.003-0.23,0.009-0.77-0.102-0.881c-0.062-0.062-0.107-0.094-0.149-0.124	c-0.159-0.116-0.306-0.235-0.511-0.509c-0.164-0.219-0.25-0.42-0.319-0.582c-0.031-0.072-0.061-0.147-0.108-0.226	c-0.484-0.826-0.497-1.509-0.514-2.373l-0.008-0.345c-0.013-0.501,0.058-0.879,0.12-1.212c0.053-0.285,0.099-0.53,0.088-0.839	c-0.01-0.295,0.001-0.461,0.01-0.588c0.008-0.125,0.01-0.144-0.059-0.407c-0.124-0.47-0.147-1.216-0.131-1.602	c0.013-0.33,0.018-0.676-0.036-0.959c-0.101-0.532-0.754-0.995-1.387-1.443c-0.258-0.183-0.507-0.361-0.722-0.54	c-0.582-0.485-0.998-0.955-1.309-1.478c-0.212-0.349-0.388-0.67-0.388-1.039c0-0.454,0.216-0.8,0.643-1.027	c0.047-0.034,0.088-0.076,0.126-0.115c0.191-0.193,0.546-0.556,1.085-0.472c0.573,0.087,0.844,0.613,0.946,0.811	c0.082,0.158,0.153,0.31,0.222,0.458c0.171,0.368,0.295,0.634,0.545,0.901c0.402,0.43,0.495,0.396,0.663,0.333l0.146-0.055	c0.446-0.171,1.111-0.426,1.889,0.144c0.048-0.067,0.104-0.131,0.169-0.191c0.159-0.148,0.324-0.231,0.453-0.292	c-0.003-0.035-0.007-0.072-0.01-0.103c-0.008-0.082-0.017-0.161-0.02-0.237c-0.033-0.672,0.053-1.656,0.648-2.535	c0.517-0.762,1.324-1.115,1.973-1.4c1.149-0.502,1.842-0.065,2.452,0.426c0.407,0.328,1.362,1.096,1.073,2.434	c-0.082,0.376-0.238,0.697-0.376,0.981c-0.126,0.26-0.235,0.484-0.261,0.688c0.005,0.033,0.019,0.059,0.031,0.087	c0.054,0.125,0.136,0.314,0.169,0.574c0.068,0.522-0.146,0.874-0.274,1.085c-0.024,0.039-0.05,0.08-0.073,0.126	c-0.125,0.257,0.11,0.462,0.218,0.538c0.138,0.098,0.265,0.175,0.383,0.247c0.428,0.261,0.913,0.557,1.277,1.349	c0.425,0.924,0.43,1.749,0.015,2.522c-0.105,0.195-0.225,0.378-0.344,0.557c-0.24,0.363-0.376,0.581-0.384,0.843	c-0.01,0.358,0.171,0.739,0.445,1.203c0.097,0.163,0.2,0.322,0.304,0.482c0.261,0.401,0.531,0.816,0.724,1.308	c0.116,0.295,0.33,0.846,0.194,1.382c-0.119,0.466-0.406,0.689-0.56,0.809c-0.245,0.29-0.174,0.743-0.114,0.99	c0.046,0.191,0.065,0.383,0.08,0.574c0.008,0.103,0.013,0.204,0.037,0.303c0.004,0.018,0.01,0.029,0.093,0.133	c0.077,0.096,0.156,0.197,0.232,0.32c0.204,0.33,0.272,0.653,0.328,0.912c0.021,0.1,0.04,0.202,0.075,0.302	c0.037,0.105,0.115,0.215,0.214,0.354c0.09,0.126,0.18,0.254,0.261,0.396c0.507,0.885,0.201,1.516-0.001,1.935	c-0.05,0.103-0.104,0.214-0.153,0.345c-0.093,0.255,0.018,0.435,0.897,1.062c0.483,0.344,0.982,0.7,1.286,1.205l0,0	c0.85,1.412-0.28,2.858-0.956,3.721c-0.099,0.127-0.192,0.245-0.272,0.356c-0.339,0.466-0.643,0.953-0.963,1.47	c-0.494,0.794-1.005,1.615-1.659,2.358c-0.295,0.334-0.609,0.647-0.926,0.961c-0.29,0.287-0.579,0.573-0.85,0.88l-0.077,0.088	c-0.39,0.445-0.832,0.949-1.688,1.116c-0.235,0.046-1.167,0.092-1.7,0.095c-0.457,0.528-1.203,0.923-2.009,0.702	c-0.007-0.002-0.013-0.003-0.022-0.006c-0.275,0.158-0.937,0.486-1.52,0.519c-0.191,0.216-0.504,0.525-1.052,0.525	c-0.986,0-1.335,0.231-1.523,0.356C18.346,43.894,18.144,44.028,17.855,44.028z"/></svg>