<svg xmlns="http://www.w3.org/2000/svg"  viewBox="0 0 64 64" width="256px" height="256px"><g data-name="cloud-cloud technology-computer-mouse-keyboard"><path fill="#bddbff" d="M57,49a4,4,0,0,0-4,4v4a4,4,0,0,0,8,0V53a3.995,3.995,0,0,0-4-4Z"/><circle cx="59" cy="29" r="2" fill="#bddbff"/><path fill="#bddbff" d="M60,15a6,6,0,0,1-6,6H34A6,6,0,0,1,34,9a6.144,6.144,0,0,1,1.06.1A7,7,0,0,1,47.22,5.34,4.967,4.967,0,0,1,53.9,9.01.34.34,0,0,1,54,9,6,6,0,0,1,60,15Z"/><path fill="#bddbff" d="M47,27v8H7a4,4,0,0,1-4-4V27H29a2.006,2.006,0,0,1,2,2h5V27Z"/><path fill="#bddbff" d="M32,43v2H18V43a2.006,2.006,0,0,1,2-2H30A2.006,2.006,0,0,1,32,43Z"/><path fill="#57a4ff" d="M41,48H9a5.006,5.006,0,0,0-5,5v4a5.006,5.006,0,0,0,5,5H41a5.006,5.006,0,0,0,5-5V53A5.006,5.006,0,0,0,41,48Zm3,9a3,3,0,0,1-3,3H9a3,3,0,0,1-3-3V53a3,3,0,0,1,3-3H41a3,3,0,0,1,3,3Z"/><path fill="#57a4ff" d="M58,48.1V46a3.009,3.009,0,0,0-3-3H49a1,1,0,0,1-1-1V22h3v7a1,1,0,0,0,1,1h4.18a3,3,0,1,0,0-2H53V22h1a7,7,0,0,0,.67-13.97A6.023,6.023,0,0,0,47.5,4.2,7.976,7.976,0,0,0,42,2H7A5,5,0,0,0,2,7V31a5,5,0,0,0,5,5H21v4H20a3.009,3.009,0,0,0-3,3v2a1,1,0,0,0,1,1H32a1,1,0,0,0,1-1V43a3.009,3.009,0,0,0-3-3H29V36H46v6a3.009,3.009,0,0,0,3,3h6a1,1,0,0,1,1,1v2.1A5.017,5.017,0,0,0,52,53v4a5,5,0,0,0,10,0V53A5.017,5.017,0,0,0,58,48.1ZM59,28a1,1,0,1,1-1,1A1,1,0,0,1,59,28ZM4,7A3.009,3.009,0,0,1,7,4H36.73a8.022,8.022,0,0,0-2.47,4A7,7,0,1,0,34,22h1v6H31.82A3.01,3.01,0,0,0,29,26H4ZM30,29a1,1,0,1,1-1-1A1,1,0,0,1,30,29Zm0,13a1,1,0,0,1,1,1v1H19V43a1,1,0,0,1,1-1Zm-7-2V36h4v4Zm23-6H7a3.009,3.009,0,0,1-3-3V28H26.18a2.992,2.992,0,1,0,5.64,2H36a1,1,0,0,0,1-1V22h9ZM34,20a5,5,0,0,1,0-10,5.76,5.76,0,0,1,.89.08,1,1,0,0,0,.77-.17,1.046,1.046,0,0,0,.4-.68A5.984,5.984,0,0,1,46.47,6.01a1,1,0,0,0,1.1.27A3.982,3.982,0,0,1,52.92,9.2a.988.988,0,0,0,.98.8h.12A5,5,0,0,1,54,20ZM60,57a3,3,0,0,1-6,0V53a3.01,3.01,0,0,1,2-2.82V53h2V50.18A3.01,3.01,0,0,1,60,53Z"/><rect width="10" height="2" x="20" y="56" fill="#57a4ff"/><rect width="2" height="2" x="12" y="52" fill="#57a4ff"/><rect width="2" height="2" x="8" y="52" fill="#57a4ff"/><rect width="2" height="2" x="16" y="52" fill="#57a4ff"/><rect width="2" height="2" x="12" y="56" fill="#57a4ff"/><rect width="2" height="2" x="8" y="56" fill="#57a4ff"/><rect width="2" height="2" x="16" y="56" fill="#57a4ff"/><rect width="2" height="2" x="36" y="56" fill="#57a4ff"/><rect width="2" height="2" x="32" y="56" fill="#57a4ff"/><rect width="2" height="2" x="40" y="56" fill="#57a4ff"/><rect width="2" height="2" x="20" y="52" fill="#57a4ff"/><rect width="2" height="2" x="24" y="52" fill="#57a4ff"/><rect width="2" height="2" x="28" y="52" fill="#57a4ff"/><rect width="2" height="2" x="32" y="52" fill="#57a4ff"/><rect width="2" height="2" x="36" y="52" fill="#57a4ff"/><rect width="2" height="2" x="40" y="52" fill="#57a4ff"/></g></svg>